<?xml version="1.0" encoding="utf-8"?>
<!-- Generator: Adobe Illustrator 23.0.2, SVG Export Plug-In . SVG Version: 6.00 Build 0)  -->
<svg version="1.1" id="Camada_1" xmlns="http://www.w3.org/2000/svg" xmlns:xlink="http://www.w3.org/1999/xlink" x="0px" y="0px"
	 viewBox="0 0 147 31" style="enable-background:new 0 0 147 31;" xml:space="preserve">
<style type="text/css">
	.st0{fill:#338FED;}
	.st1{fill:#334057;}
</style>
<g>
	<path class="st0" d="M31.2,18.4c0-0.1,0-0.2,0-0.2c-0.2,0.4-0.3,0.7-0.5,1.1C31,19.1,31.2,18.8,31.2,18.4"/>
	<path class="st0" d="M17.4,3.7c0.5-0.3,1.1-0.2,1.3,0.3c0.3,0.5,0.2,1.1-0.3,1.3c-3.2,2.1-5.1,5.6-5.1,9.3c0,3.7,1.8,7.1,4.9,9.2
		c0.4,0.3,0.6,0.9,0.3,1.3c-0.2,0.3-0.5,0.4-0.8,0.4c-0.2,0-0.4-0.1-0.5-0.2c-3.6-2.4-5.8-6.5-5.8-10.8C11.4,10.2,13.7,6.1,17.4,3.7
		 M24.7,5.6H32c0.5,0,1,0.4,1,1c0,0.5-0.4,1-1,1h-7.3c-0.5,0-1-0.4-1-1C23.7,6.1,24.1,5.6,24.7,5.6"/>
	<path class="st0" d="M23.5,14.7c0,0.5,0.4,1,1,1h7.6c0.1-0.6,0.3-1.3,0.4-1.9h-8C23.9,13.7,23.5,14.2,23.5,14.7"/>
	<path class="st0" d="M30.3,17.5h-6c-1.5,0-2.8-1.2-2.8-2.8c0-1.1,0.7-2.1,1.7-2.6c0.5-0.2,0.7-0.8,0.5-1.3
		c-0.2-0.5-0.8-0.7-1.3-0.5c-1.8,0.7-2.9,2.5-2.9,4.4c0,2.6,2.1,4.7,4.7,4.7h6c0.2,0,0.3,0,0.4-0.1c0.2-0.4,0.3-0.7,0.5-1.1
		C31.1,17.8,30.7,17.5,30.3,17.5"/>
	<path class="st0" d="M26.2,10.9c0,0.5,0.4,1,1,1h5.6c0.1-0.7,0.1-1.3,0.2-1.9h-5.8C26.6,10,26.2,10.4,26.2,10.9"/>
	<path class="st0" d="M17.6,14.7c0-2.5,1.3-4.8,3.4-6.1c0.5-0.3,0.6-0.9,0.3-1.3c-0.3-0.5-0.9-0.6-1.3-0.3c-2.7,1.6-4.4,4.6-4.4,7.8
		c0,5,4.1,9.1,9.1,9.1h3.1c0.5-0.6,1-1.2,1.5-1.9h-4.6C20.8,21.8,17.6,18.6,17.6,14.7"/>
	<path class="st0" d="M24.7,7.6H32c0.5,0,1-0.4,1-1c0-0.5-0.4-1-1-1h-7.3c-0.5,0-1,0.4-1,1C23.7,7.1,24.1,7.6,24.7,7.6"/>
	<path class="st0" d="M21.8,25.5c-0.5-0.1-1,0.2-1.2,0.7c-0.1,0.5,0.2,1,0.7,1.2c0.7,0.2,1.3,0.3,2,0.3c0.8-0.5,1.6-1.1,2.4-1.9
		h-1.4C23.6,25.8,22.7,25.7,21.8,25.5"/>
	<path class="st0" d="M17.2,25.5c0.2,0.1,0.4,0.2,0.5,0.2c0.3,0,0.6-0.2,0.8-0.4c0.3-0.4,0.2-1-0.3-1.3c-3.1-2.1-4.9-5.5-4.9-9.2
		c0-3.8,1.9-7.3,5.1-9.3c0.5-0.3,0.6-0.9,0.3-1.3c-0.3-0.5-0.9-0.6-1.3-0.3c-3.8,2.4-6,6.5-6,11C11.4,19,13.6,23.1,17.2,25.5"/>
	<path class="st0" d="M21.9,2.9c0.1,0.5,0.6,0.9,1.1,0.8c0.5-0.1,1-0.1,1.5-0.1h7c-1.6-0.6-4.2-1.5-7.5-1.9c-0.4,0-0.8,0.1-1.2,0.1
		C22.2,1.8,21.8,2.3,21.9,2.9"/>
	<path class="st0" d="M19.7,29.7c0,0,0.4-0.1,0.9-0.4c-2.6-0.7-4.9-2-6.9-3.9c-2.9-2.9-4.4-6.6-4.4-10.7c0-5.7,3.2-10.6,7.8-13.2
		c-1.5,0.1-2.9,0.4-4.2,0.6C9.5,5.2,7.4,9.7,7.4,14.7c0,0.6,0,1.1,0.1,1.7c0.1,0.2,0.1,0.5,0.2,0.7C11.2,26.6,19.7,29.7,19.7,29.7"
		/>
	<path class="st0" d="M7.1,5c0.1,2,0.3,8.6,1.5,11.7c2.9,8,9.5,11.3,11.1,12c1.6-0.7,8.2-4,11.1-12C31.9,13.6,32.2,7,32.2,5
		c-1.5-0.7-6.1-2.5-12.6-2.7C13.3,2.5,8.6,4.3,7.1,5 M19.7,30.7l-0.3-0.1c-0.4-0.1-9-3.4-12.6-13.2c-1.5-4-1.6-12.6-1.6-13l0-0.6
		l0.5-0.3c0.2-0.1,5.6-3,14-3.2l0,0l0,0c8.4,0.2,13.8,3.1,14,3.2l0.5,0.3l0,0.6c0,0.4-0.1,8.9-1.6,13C29,27.3,20.4,30.5,20,30.6
		L19.7,30.7z"/>
	<path class="st1" d="M62.2,19.3c-1,1.9-3.1,3.1-5.5,3.1c-1.9,0-3.6-0.7-4.9-2c-1.2-1.2-1.9-2.9-1.9-4.8c0-1.8,0.7-3.5,1.9-4.8
		c1.2-1.3,3-2,4.9-2c2.3,0,4.4,1.2,5.4,3.1l0.4,0.8l2.6-1.5l-0.4-0.7c-1.6-2.8-4.7-4.5-8-4.5c-5.5,0-9.7,4.1-9.7,9.6
		c0,5.5,4.2,9.6,9.7,9.6c3.4,0,6.5-1.8,8.1-4.6l0.4-0.7l-2.6-1.5L62.2,19.3z"/>
	<rect x="67.2" y="5.8" class="st1" width="2.9" height="19.4"/>
	<path class="st1" d="M75.4,16.9c0.5-1.8,2.1-3,4-3c2.2,0,3.3,1.5,3.8,3H75.4z M84.5,13.3c-1.3-1.4-3-2.2-5-2.2
		c-2,0-3.8,0.7-5.1,2.1c-1.3,1.3-2,3.1-2,5.1c0,4.2,3,7.2,7.2,7.2c2.6,0,4.8-1.2,6-3.1l-2.5-1.5c-0.6,1.1-1.9,1.8-3.5,1.8
		c-2,0-3.6-1.1-4.2-2.9h10.8v-0.8c0-0.1,0-0.1,0-0.2c0-0.1,0-0.2,0-0.3C86.3,16.5,85.7,14.7,84.5,13.3"/>
	<path class="st1" d="M99.3,18.3c0,2.4-1.9,4.4-4.3,4.4c-2.4,0-4.3-1.9-4.3-4.4c0-2.4,1.9-4.4,4.3-4.4
		C97.4,13.9,99.3,15.9,99.3,18.3 M99.3,12.7c-1.2-1-2.7-1.6-4.4-1.6c-4,0-7.1,3.2-7.1,7.2c0,4,3.1,7.2,7.1,7.2
		c1.7,0,3.2-0.5,4.4-1.6v1.3h2.9V11.4h-2.9V12.7z"/>
	<path class="st1" d="M108.2,12.2v-0.8h-2.9v13.8h2.9v-7.6c0-0.8,0.2-3.6,3.2-3.6h0.8v-2.8h-0.8C110.2,11.2,109.1,11.5,108.2,12.2"
		/>
	<path class="st1" d="M127.6,15.9c0,3.7-2.5,6.5-5.9,6.5h-4.3V9.4h4.3C125.1,9.4,127.6,12.1,127.6,15.9 M121.6,6.5h-7.2v18.7h7.2
		c2.5,0,4.7-1,6.4-2.8c1.6-1.7,2.5-4.1,2.5-6.6s-0.9-4.8-2.5-6.6C126.4,7.5,124.1,6.5,121.6,6.5"/>
	<path class="st1" d="M134.4,6.5c-1,0-1.8,0.8-1.8,1.8c0,1,0.8,1.8,1.8,1.8c1,0,1.8-0.8,1.8-1.8C136.2,7.3,135.3,6.5,134.4,6.5"/>
	<rect x="132.9" y="11.4" class="st1" width="2.9" height="13.8"/>
	<rect x="139" y="5.8" class="st1" width="2.9" height="19.4"/>
</g>
</svg>
